<!-- Generated by IcoMoon.io -->
<svg version="1.1" xmlns="http://www.w3.org/2000/svg" width="32" height="32" viewBox="0 0 32 32">
<path fill="#176cc7" d="M17.82 0.255c-0.284 0.253-2.495 4.64-2.495 4.64l-1.645 6.635 6.401-0.587s5.324-9.901 5.432-10.13c0.192-0.416 0.295-0.587-0.44-0.587-0.734-0.003-6.988-0.208-7.254 0.029z"></path>
<path fill="#fcc417" d="M21.134 10.532c-0.318-0.171-9.699-0.318-9.92 0-0.2 0.29-0.171 1.613-0.074 1.784s3.25 1.637 3.25 1.637l-0.003 0.534s0.174 0.418 1.932 0.418 1.94-0.355 1.94-0.355l0.016-0.54s2.761-1.379 2.906-1.5c0.147-0.124 0.271-1.808-0.047-1.979zM18.244 12.725s-0.008-0.368-0.189-0.461c-0.182-0.092-3.106-0.076-3.353-0.063s-0.247 0.455-0.247 0.455l-2-0.974v-0.195l7.448 0.053 0.013 0.221-1.671 0.963z"></path>
<path fill="#fdffff" d="M15.233 12.606c-0.247 0-0.39 0.258-0.39 0.703 0 0.416 0.142 0.766 0.455 0.74 0.258-0.021 0.347-0.416 0.324-0.766-0.024-0.416-0.076-0.676-0.39-0.676z"></path>
<path fill="#fcc417" d="M7.263 23.015c0 6.306 5.701 9.114 9.491 8.98 4.179-0.15 9.185-3.408 8.883-9.425-0.287-5.701-5.082-8.404-9.235-8.375-4.827 0.034-9.138 3.311-9.138 8.82z"></path>
<path fill="#fa912c" d="M16.62 30.898c-0.066 0-0.134 0-0.2-0.003-1.974-0.066-3.924-0.897-5.351-2.279-1.527-1.479-2.363-3.479-2.353-5.63 0.024-5.251 4.614-7.685 7.727-7.685h0.026c4.219 0.018 7.683 3.298 7.78 7.743 0.042 1.979-0.769 4.056-2.358 5.619-1.484 1.455-3.453 2.235-5.272 2.235zM16.438 16.175c-2.792 0-6.922 2.285-6.932 6.811-0.008 3.385 2.614 6.864 6.98 7.011 1.663 0.053 3.377-0.584 4.761-1.945 1.437-1.413 2.245-3.235 2.216-4.998-0.063-3.824-3.19-6.867-6.985-6.882-0.011 0-0.032 0.003-0.039 0.003z"></path>
<path fill="#fefffa" d="M14.854 15.091c-0.182-0.25-2.24-0.203-4.185 1.698-1.877 1.834-2.079 3.564-1.719 3.664 0.408 0.113 0.905-1.719 2.624-3.258 1.579-1.411 3.643-1.605 3.279-2.103z"></path>
<path fill="#fefffa" d="M22.815 21.899c-0.634 0.090 0.024 1.99-1.448 4.116-1.276 1.845-2.724 2.513-2.556 2.919 0.226 0.542 2.545-0.808 3.619-3.008 0.974-1.992 0.858-4.095 0.384-4.027z"></path>
<path fill="#fa912c" d="M14.335 19.41c-0.137 0.203-0.013 1.979 0.068 2.058 0.158 0.158 1.358-0.408 1.358-0.408l-0.045 4.751s-0.882-0.011-0.974 0.024c-0.182 0.068-0.158 1.9-0.024 1.99s3.732 0.137 3.869-0.045c0.137-0.182 0.103-1.784 0.039-1.858-0.113-0.137-0.974-0.082-0.974-0.082s0.074-6.996 0.050-7.219-0.271-0.363-0.566-0.295-2.716 0.953-2.803 1.084z"></path>
<path fill="#2e9df4" d="M6.35 0.118c-0.166 0.153 6.174 11.444 6.174 11.444s1.063 0.137 3.437 0.158 3.55-0.137 3.55-0.137-4.93-11.351-5.224-11.465c-0.145-0.058-2.098-0.079-4.006-0.1-1.911-0.024-3.774-0.047-3.932 0.1z"></path>
</svg>
