<!-- Generated by IcoMoon.io -->
<svg version="1.1" xmlns="http://www.w3.org/2000/svg" width="32" height="32" viewBox="0 0 32 32">
<path fill="#50a5dc" d="M7.817 24.772c-0.643-0.222-1.206-0.628-1.618-1.169l-1.039-1.361c-0.115-0.151-0.179-0.335-0.182-0.525l-0.047-2.89c-0.007-0.442 0.312-0.822 0.748-0.891 0.467-0.075 0.794-0.502 0.743-0.973l-0.089-0.821c-0.027-0.246-0.155-0.47-0.354-0.618l-0.655-0.485c-0.594-0.441-1.315-0.679-2.055-0.679h-0.432c-0.184 0-0.368-0.015-0.55-0.044l-1.507-0.244c-0.093 0.63-0.142 1.274-0.142 1.928 0 5.204 3.050 9.751 7.593 12.209l0.321-2.236c0.075-0.524-0.233-1.029-0.733-1.201z"></path>
<path fill="#50a5dc" d="M29.678 20.147l-0.089-0.11c-0.252-0.311-0.672-0.429-1.049-0.294l-0.68 0.244c-0.43 0.154-0.889 0.207-1.343 0.155l-0.2-0.023c-1.058-0.121-1.972-0.797-2.396-1.775-0.241-0.555-0.307-1.171-0.19-1.765l0.411-2.078c0.111-0.56 0.38-1.076 0.775-1.487l0.162-0.169c0.678-0.705 1.658-1.032 2.623-0.877l1.078 0.174c0.024 0.004 0.048 0.009 0.071 0.014l2.078 0.502c-0.352-1.338-0.909-2.602-1.641-3.761l-1.306-0.187c-0.019-0.003-0.038-0.006-0.056-0.010l-1.43-0.328c-0.44-0.101-0.856 0.242-0.84 0.693 0.008 0.24-0.11 0.467-0.311 0.599l-0.926 0.605c-0.216 0.141-0.492 0.149-0.716 0.022l-1.304-0.743c-0.362-0.206-0.546-0.627-0.451-1.032l0.293-1.252c0.097-0.416 0.463-0.714 0.89-0.726l1.105-0.031c0.512-0.014 0.919-0.436 0.915-0.948l-0.008-0.928c-2.555-1.747-5.72-2.781-9.147-2.781-0.948 0-1.875 0.080-2.776 0.231 0.546 0.378 0.986 0.915 1.245 1.567l0.036 0.091c0.111 0.281 0.185 0.575 0.219 0.874l0.032 0.278c0.070 0.607-0.023 1.223-0.268 1.782l-0.347 0.79c-0.277 0.631-0.737 1.165-1.321 1.533l-0.432 0.272c-0.243 0.153-0.385 0.426-0.37 0.713l0.058 1.167c0.024 0.484-0.387 0.877-0.87 0.831-0.264-0.025-0.499-0.181-0.625-0.415l-0.53-0.985c-0.102-0.19-0.278-0.331-0.486-0.389l-1.875-0.523c-0.349-0.097-0.721-0.069-1.051 0.081l-0.446 0.203c-0.667 0.303-1.028 1.034-0.863 1.748v0c0.065 0.281 0.207 0.539 0.412 0.743l1.218 1.218c0.085 0.085 0.165 0.174 0.24 0.267l0.835 1.030c0.247 0.304 0.618 0.48 1.010 0.479l2.275-0.007c0.462-0.001 0.89 0.243 1.122 0.642 0.184 0.315 0.491 0.537 0.847 0.614l0.852 0.183c0.369 0.079 0.685 0.315 0.865 0.646l0.412 0.755c0.103 0.188 0.26 0.341 0.451 0.438l1.935 0.983c0.399 0.203 0.628 0.634 0.573 1.079-0.032 0.256-0.157 0.492-0.35 0.664l-0.735 0.65c-0.13 0.115-0.23 0.26-0.291 0.423l-0.16 0.427c-0.111 0.296-0.34 0.533-0.632 0.654l-0.783 0.325c-0.426 0.177-0.704 0.593-0.704 1.055 0 0.185-0.045 0.367-0.13 0.53l-2.231 4.256c1.167 0.261 2.385 0.4 3.639 0.4 6.163 0 11.477-3.343 13.924-8.168l-0.037-1.272c-0.006-0.206-0.079-0.404-0.209-0.565z"></path>
<path fill="#7ac943" d="M14.722 24.964c0-0.462 0.278-0.878 0.704-1.055l0.783-0.325c0.292-0.121 0.521-0.358 0.632-0.654l0.16-0.427c0.061-0.163 0.161-0.308 0.291-0.423l0.735-0.65c0.194-0.171 0.318-0.407 0.35-0.664 0.056-0.444-0.174-0.876-0.573-1.079l-1.935-0.983c-0.191-0.097-0.348-0.25-0.451-0.438l-0.412-0.755c-0.181-0.331-0.497-0.567-0.865-0.646l-0.852-0.183c-0.356-0.076-0.664-0.299-0.847-0.614-0.233-0.399-0.66-0.644-1.122-0.642l-2.275 0.007c-0.392 0.001-0.763-0.175-1.010-0.479l-0.835-1.030c-0.075-0.093-0.156-0.182-0.24-0.267l-1.218-1.218c-0.204-0.204-0.347-0.461-0.412-0.743v0c-0.165-0.714 0.196-1.445 0.863-1.748l0.446-0.203c0.33-0.15 0.702-0.179 1.051-0.081l1.875 0.523c0.208 0.058 0.384 0.199 0.486 0.389l0.53 0.985c0.126 0.234 0.36 0.389 0.625 0.415 0.483 0.046 0.894-0.347 0.87-0.831l-0.058-1.167c-0.014-0.287 0.127-0.559 0.37-0.713l0.432-0.272c0.584-0.367 1.044-0.901 1.321-1.533l0.347-0.79c0.246-0.56 0.338-1.175 0.268-1.782l-0.032-0.278c-0.035-0.3-0.108-0.594-0.219-0.874l-0.036-0.091c-0.258-0.652-0.698-1.189-1.245-1.567-6.485 1.090-11.548 5.931-12.444 11.993l1.507 0.244c0.182 0.029 0.366 0.044 0.55 0.044h0.432c0.74 0 1.46 0.238 2.055 0.679l0.655 0.485c0.199 0.148 0.327 0.372 0.354 0.618l0.089 0.821c0.051 0.47-0.276 0.898-0.743 0.973-0.436 0.070-0.755 0.45-0.748 0.891l0.047 2.89c0.003 0.19 0.067 0.374 0.182 0.525l1.039 1.361c0.412 0.54 0.975 0.947 1.618 1.169 0.501 0.173 0.809 0.677 0.733 1.201l-0.321 2.236c1.271 0.688 2.659 1.212 4.13 1.541l2.231-4.256c0.086-0.163 0.13-0.345 0.13-0.53z"></path>
<path fill="#7ac943" d="M24.239 6.506l-1.105 0.031c-0.427 0.012-0.793 0.31-0.89 0.726l-0.293 1.252c-0.095 0.406 0.088 0.826 0.451 1.032l1.304 0.743c0.224 0.127 0.5 0.119 0.716-0.022l0.926-0.605c0.201-0.132 0.319-0.359 0.311-0.599-0.016-0.451 0.4-0.794 0.84-0.693l1.43 0.328c0.019 0.004 0.037 0.008 0.056 0.010l1.306 0.187c-1.054-1.669-2.467-3.122-4.143-4.268l0.008 0.928c0.004 0.513-0.403 0.934-0.915 0.948z"></path>
<path fill="#7ac943" d="M30.931 12.659l-2.078-0.502c-0.024-0.006-0.047-0.010-0.071-0.014l-1.078-0.174c-0.965-0.156-1.945 0.172-2.623 0.877l-0.162 0.169c-0.395 0.411-0.665 0.927-0.775 1.487l-0.411 2.078c-0.118 0.594-0.051 1.21 0.19 1.765 0.424 0.977 1.337 1.654 2.396 1.775l0.2 0.023c0.454 0.052 0.913-0.001 1.343-0.155l0.68-0.244c0.377-0.135 0.797-0.017 1.049 0.294l0.089 0.11c0.13 0.16 0.203 0.359 0.209 0.565l0.037 1.272c0.922-1.817 1.438-3.845 1.438-5.983 0-1.151-0.15-2.27-0.432-3.341z"></path>
<path fill="#000" d="M27.809 21.731c-0.275-0.22-0.676-0.176-0.896 0.099-0.291 0.364-0.606 0.718-0.936 1.054-0.247 0.251-0.243 0.655 0.008 0.901 0.124 0.122 0.286 0.183 0.447 0.183 0.165 0 0.33-0.064 0.455-0.19 0.36-0.366 0.704-0.753 1.022-1.15 0.22-0.275 0.176-0.676-0.099-0.896z"></path>
<path fill="#000" d="M24.412 24.258c-2.411 1.827-5.332 2.886-8.448 3.063-0.351 0.020-0.62 0.321-0.6 0.672 0.019 0.339 0.3 0.602 0.636 0.602 0.012 0 0.024-0 0.037-0.001 3.37-0.191 6.533-1.339 9.146-3.319 0.281-0.213 0.336-0.612 0.123-0.893s-0.613-0.336-0.893-0.123z"></path>
<path fill="#000" d="M31.547 12.497c0-0 0-0-0-0-0.364-1.383-0.942-2.709-1.718-3.939-1.104-1.749-2.558-3.248-4.322-4.454-2.767-1.892-6.055-2.892-9.507-2.892-0.965 0-1.935 0.081-2.881 0.24-2.683 0.451-5.215 1.543-7.323 3.158-3.099 2.374-5.104 5.702-5.646 9.37-0.099 0.67-0.149 1.35-0.149 2.021 0 2.633 0.758 5.218 2.192 7.476 1.387 2.184 3.37 4.014 5.734 5.294 0 0 0 0 0.001 0 1.341 0.726 2.786 1.265 4.295 1.603 1.233 0.276 2.505 0.416 3.779 0.416 3.094 0 6.097-0.818 8.683-2.365 2.526-1.511 4.535-3.639 5.81-6.152 1-1.971 1.507-4.082 1.507-6.272 0-1.181-0.152-2.36-0.453-3.503zM27.901 8.040l-1.26-0.289c-0.404-0.093-0.819 0.005-1.139 0.269s-0.495 0.653-0.481 1.067c0.001 0.017-0.008 0.034-0.022 0.043l-0.926 0.605c-0.016 0.010-0.035 0.011-0.052 0.002l-1.304-0.743c-0.116-0.066-0.176-0.203-0.145-0.333l0.293-1.252c0.031-0.134 0.15-0.23 0.287-0.234l1.105-0.031c0.741-0.021 1.358-0.562 1.502-1.263 0.799 0.648 1.515 1.37 2.141 2.159zM1.275 16c0-0.396 0.019-0.795 0.057-1.193l0.853 0.138c0.215 0.035 0.434 0.052 0.652 0.052h0.432c0.599 0 1.194 0.197 1.675 0.553l0.655 0.485c0.056 0.041 0.093 0.105 0.1 0.174l0.089 0.821c0.014 0.133-0.078 0.253-0.21 0.275-0.744 0.119-1.297 0.777-1.284 1.531l0.047 2.89c0.005 0.328 0.113 0.64 0.313 0.901l1.039 1.361c0.49 0.642 1.153 1.121 1.917 1.384 0.212 0.073 0.342 0.287 0.31 0.508l-0.186 1.3c-4.006-2.503-6.458-6.711-6.458-11.183zM8.025 24.169c-0.526-0.181-0.982-0.511-1.319-0.953l-1.039-1.361c-0.033-0.043-0.051-0.094-0.051-0.148l-0.047-2.89c-0.002-0.124 0.089-0.232 0.211-0.252 0.803-0.128 1.363-0.862 1.276-1.671l-0.089-0.821c-0.046-0.422-0.267-0.809-0.608-1.062l-0.655-0.485c-0.699-0.518-1.564-0.804-2.434-0.804h-0.432c-0.15 0-0.301-0.012-0.449-0.036l-0.871-0.141c0.618-3.093 2.395-5.889 5.053-7.925 1.873-1.435 4.112-2.423 6.491-2.865 0.361 0.3 0.64 0.685 0.814 1.126l0.036 0.091c0.091 0.229 0.151 0.469 0.179 0.713l0.032 0.278c0.057 0.495-0.019 0.997-0.219 1.453l-0.347 0.79c-0.227 0.517-0.599 0.949-1.077 1.25l-0.432 0.272c-0.438 0.275-0.693 0.767-0.668 1.284l0.058 1.167c0.003 0.060-0.025 0.099-0.049 0.122s-0.064 0.048-0.124 0.043c-0.053-0.005-0.099-0.036-0.124-0.082l-0.53-0.985c-0.184-0.341-0.503-0.597-0.876-0.701l-1.875-0.523c-0.493-0.137-1.021-0.097-1.486 0.115l-0.446 0.203c-0.939 0.427-1.453 1.467-1.221 2.472 0.092 0.398 0.293 0.761 0.582 1.050l1.218 1.218c0.069 0.069 0.135 0.142 0.196 0.217l0.835 1.030c0.369 0.455 0.915 0.715 1.501 0.715 0.002 0 0.004 0 0.006 0l2.275-0.007c0.001 0 0.001 0 0.002 0 0.233 0 0.45 0.125 0.568 0.326 0.273 0.468 0.734 0.802 1.264 0.916l0.852 0.183c0.187 0.040 0.348 0.16 0.439 0.328l0.412 0.755c0.165 0.303 0.415 0.545 0.722 0.701l1.935 0.983c0.159 0.081 0.251 0.254 0.229 0.431-0.013 0.103-0.063 0.197-0.14 0.265l-0.735 0.65c-0.207 0.183-0.368 0.417-0.465 0.676l-0.16 0.427c-0.049 0.13-0.15 0.235-0.279 0.289l-0.783 0.325c-0.667 0.276-1.098 0.922-1.098 1.643 0 0.081-0.020 0.162-0.058 0.234l-2.001 3.817c-1.078-0.277-2.118-0.666-3.101-1.162l0.257-1.79c0.118-0.826-0.368-1.622-1.157-1.894zM16 29.514c-0.899 0-1.797-0.075-2.678-0.224l1.835-3.5c0.133-0.254 0.203-0.539 0.203-0.826 0-0.205 0.122-0.387 0.311-0.466l0.783-0.325c0.453-0.188 0.812-0.559 0.984-1.019l0.16-0.427c0.024-0.065 0.064-0.123 0.116-0.169l0.735-0.65c0.31-0.274 0.509-0.651 0.56-1.062 0.089-0.709-0.28-1.402-0.916-1.726l-1.935-0.983c-0.077-0.039-0.139-0.1-0.18-0.175l-0.412-0.755c-0.27-0.495-0.741-0.846-1.291-0.964l-0.852-0.183c-0.18-0.039-0.337-0.152-0.43-0.312-0.345-0.592-0.984-0.959-1.669-0.959-0.002 0-0.004 0-0.006 0l-2.275 0.007c-0.001 0-0.001 0-0.002 0-0.199 0-0.385-0.089-0.511-0.243l-0.835-1.030c-0.089-0.11-0.185-0.216-0.285-0.316l-1.218-1.218c-0.12-0.12-0.203-0.27-0.241-0.435-0.096-0.417 0.117-0.848 0.506-1.024l0.446-0.203c0.193-0.088 0.412-0.105 0.616-0.048l1.875 0.523c0.041 0.011 0.076 0.040 0.096 0.077l0.53 0.985c0.227 0.422 0.648 0.701 1.126 0.747 0.414 0.040 0.825-0.103 1.126-0.391s0.462-0.691 0.441-1.107l-0.058-1.167c-0.003-0.057 0.025-0.111 0.073-0.141l0.432-0.272c0.694-0.437 1.235-1.065 1.565-1.816l0.347-0.79c0.291-0.663 0.401-1.393 0.318-2.112l-0.032-0.278c-0.041-0.355-0.128-0.704-0.26-1.036l-0.036-0.091c-0.122-0.309-0.28-0.598-0.47-0.865h0.001c0.468-0.041 0.938-0.061 1.407-0.061 3.080 0 6.016 0.859 8.512 2.486l0.005 0.591c0.001 0.164-0.131 0.301-0.295 0.306l-1.105 0.031c-0.716 0.020-1.33 0.521-1.493 1.218l-0.293 1.252c-0.158 0.676 0.152 1.388 0.756 1.732l1.304 0.743c0.205 0.117 0.43 0.174 0.656 0.174 0.252 0 0.503-0.072 0.724-0.216l0.926-0.605c0.386-0.252 0.615-0.694 0.599-1.155-0-0.007-0.001-0.024 0.018-0.040s0.036-0.011 0.043-0.010l1.43 0.328c0.035 0.008 0.072 0.015 0.108 0.020l1.011 0.145c0.44 0.732 0.803 1.498 1.086 2.289l-0.987-0.239c-0.039-0.009-0.080-0.018-0.12-0.024l-1.078-0.174c-1.171-0.189-2.361 0.209-3.184 1.064l-0.162 0.169c-0.481 0.5-0.806 1.125-0.941 1.805l-0.411 2.078c-0.143 0.724-0.064 1.465 0.23 2.143 0.513 1.183 1.628 2.008 2.908 2.154l0.2 0.023c0.548 0.063 1.112-0.003 1.63-0.189l0.68-0.244c0.121-0.043 0.257-0.005 0.338 0.095l0.089 0.11c0.042 0.052 0.066 0.116 0.068 0.182l0.032 1.108c-2.442 4.668-7.636 7.676-13.282 7.676zM30.159 19.727l-0.074-0.092c-0.305-0.377-0.761-0.585-1.228-0.585-0.178 0-0.357 0.030-0.531 0.092l-0.68 0.244c-0.336 0.12-0.701 0.163-1.056 0.122l-0.2-0.023c-0.829-0.095-1.551-0.629-1.883-1.395-0.19-0.439-0.242-0.918-0.149-1.387l0.411-2.078c0.087-0.441 0.298-0.845 0.61-1.169l0.162-0.169c0.533-0.554 1.304-0.811 2.062-0.689l1.078 0.174c0.008 0.001 0.015 0.003 0.023 0.005l1.702 0.411c0.213 0.922 0.321 1.866 0.321 2.812 0 1.277-0.19 2.524-0.567 3.727z"></path>
</svg>
