<!-- Generated by IcoMoon.io -->
<svg version="1.1" xmlns="http://www.w3.org/2000/svg" width="32" height="32" viewBox="0 0 32 32">
<path fill="#176cc7" d="M17.806 0.253c-0.282 0.251-2.48 4.612-2.48 4.612l-1.635 6.595 6.362-0.583s5.292-9.841 5.399-10.068c0.191-0.413 0.293-0.583-0.437-0.583-0.73-0.003-6.945-0.207-7.209 0.029z"></path>
<path fill="#f79429" d="M21.099 10.468c-0.317-0.17-9.639-0.317-9.859 0-0.199 0.288-0.086 1.797-0.010 1.978 0.136 0.314 3.147 1.682 3.147 1.682l-0.058 0.623s0.246 0.063 1.996 0.063 2.095-0.089 2.095-0.089l0.005-0.562s2.71-1.318 2.846-1.502c0.115-0.152 0.154-2.022-0.162-2.192zM18.324 12.854s0.086-0.385-0.094-0.473c-0.18-0.092-3.278-0.050-3.524-0.037s-0.246 0.453-0.246 0.453l-1.951-1.005-0.037-0.374 7.403 0.052-0.026 0.353-1.525 1.031z"></path>
<path fill="#fdffff" d="M15.234 12.718c-0.246 0-0.387 0.256-0.387 0.698 0 0.413 0.141 0.761 0.453 0.735 0.256-0.021 0.345-0.413 0.322-0.761-0.024-0.416-0.076-0.672-0.387-0.672z"></path>
<path fill="#f79429" d="M7.4 23.233c0 6.268 5.679 8.876 9.449 8.763 4.392-0.131 9.116-3.463 8.727-9.443-0.366-5.611-5.090-8.185-9.218-8.156-4.797 0.037-8.957 3.361-8.957 8.836z"></path>
<path fill="#d25116" d="M16.649 31.050c-0.065 0-0.133 0-0.199-0.003-1.962-0.065-3.9-0.892-5.318-2.265-1.517-1.47-2.349-3.458-2.339-5.595 0.024-5.219 4.586-7.638 7.68-7.638h0.026c4.193 0.018 7.636 3.278 7.732 7.696 0.042 1.967-0.586 3.924-2.166 5.478-1.475 1.444-3.61 2.328-5.417 2.328zM16.469 16.416c-2.775 0-6.88 2.271-6.89 6.77-0.008 3.364 2.598 6.822 6.937 6.969 1.653 0.052 3.518-0.56 4.892-1.91 1.428-1.405 2.069-3.236 2.040-4.988-0.063-3.801-3.17-6.825-6.943-6.84-0.008-0.005-0.029 0-0.037 0z"></path>
<path fill="#fefffa" d="M14.928 15.224c-0.181-0.248-2.030-0.178-4.021 1.535-1.978 1.703-2.273 3.586-1.917 3.686 0.405 0.112 0.9-1.708 2.608-3.238 1.57-1.399 3.688-1.488 3.33-1.983z"></path>
<path fill="#fefffa" d="M22.878 22.069c-0.63 0.089 0.024 1.978-1.439 4.091-1.269 1.834-2.707 2.498-2.54 2.901 0.225 0.539 2.53-0.803 3.597-2.99 0.965-1.98 0.85-4.070 0.382-4.002z"></path>
<path fill="#2e9df4" d="M6.406 0.117c-0.165 0.152 6.137 11.374 6.137 11.374s1.057 0.136 3.416 0.157 3.529-0.136 3.529-0.136-4.9-11.282-5.192-11.395c-0.144-0.058-2.085-0.078-3.981-0.099-1.899-0.024-3.751-0.047-3.908 0.099z"></path>
<path fill="#d25116" d="M19.339 21.041c-0.303-2.629-3.364-2.849-4.633-1.839-1.235 0.984-1.117 2.354-0.251 2.514 0.683 0.126 0.861-0.416 1.059-0.664 0.45-0.557 1.167-0.61 1.635-0.162 0.531 0.51 0.204 1.729-0.594 1.779-0.594 0.037-0.895 0.005-0.97 0.107-0.107 0.144-0.092 1.277 0.018 1.402 0.126 0.144 0.628 0.055 1.059 0.071 0.594 0.024 1.224 0.902 0.808 1.562-0.432 0.683-1.58 0.377-1.993-0.037-0.547-0.547-1.093-0.233-1.277-0.018-0.288 0.34-0.594 1.114 0.468 1.868 1.059 0.753 4.274 0.897 4.923-1.436 0.565-2.038-0.753-2.875-0.753-2.875s0.672-0.772 0.5-2.271z"></path>
</svg>
